<svg xmlns="http://www.w3.org/2000/svg" width="600" height="417.291" viewBox="0 0 600 417.291"><path d="M0 198.495h129.791V0H0v198.494zm194.29-1.862c0 7.125-3.681 11.458-10.153 11.458-6.473 0-10.747-3.979-10.747-11.458v-23.809h-7.777v23.809c0 12.528 8.49 18.582 18.464 18.582 10.45 0 17.99-6.293 17.99-18.582v-23.809h-7.778v23.809zm55.315 1.72l-20.363-25.766h-6.352v41.56h7.835v-28.022l21.85 28.083v-.06h4.868v-41.621h-7.838v25.826zm28.66 15.973h7.777v-41.56h-7.777v41.56zm41.753-9.204l-12.527-32.356h-8.788l17.278 41.738h8.134l17.276-41.738h-8.785l-12.588 32.356zm31.617 9.204h31.11v-7.719h-23.333v-9.381h22.503v-7.303h-22.503v-9.558h23.334v-7.6h-31.111v41.56zm80.872-27.787c0-7.178-5.17-13.72-14.965-13.77-6.58 0-13.173-.064-19.766-.064v41.616h7.838v-13.885h7.533l12.119 13.885h9.324v-.534l-12.589-14.19c7.889-1.6 10.506-7.355 10.506-13.058zm-26.893 6.834v-13.3h11.928c4.93 0 7.127 3.315 7.127 6.643 0 3.329-2.134 6.657-7.127 6.657h-11.928zm57.826-4.459c-4.989-.594-9.264-1.603-9.264-5.225 0-3.087 2.793-5.52 8.61-5.52 4.512 0 8.432 2.256 9.856 4.63l6.233-3.206c-3.146-6.412-9.856-8.253-16.327-8.253-7.658.059-16.089 3.562-16.089 12.112 0 9.321 7.838 11.578 16.328 12.589 5.52.592 9.616 2.195 9.616 6.114 0 4.51-4.63 6.233-9.557 6.233-5.048 0-9.856-2.02-11.697-6.59l-6.53 3.384c3.087 7.6 9.617 10.212 18.108 10.212 9.262 0 17.454-3.978 17.454-13.24h.001c0-9.915-8.075-12.17-16.742-13.24zm31.116 25.412h7.778v-41.56h-7.778v41.56zm22.834-34.436h13.18v34.436h7.836V179.89h13.181v-7.124H517.39v7.124zm70.337-19.474v-.296h-8.55l-4.392 8.074v.356h6.411l6.531-8.134zm5.76 19.949v-7.6h-31.11v41.56h31.11v-7.718h-23.334v-9.381h22.502v-7.303h-22.502v-9.558h23.334zM195.872 0h-25.25v139.397h25.25V0zm205.807 139.398h25.25V25.25h44.666V.001H357.014v25.25h44.665v114.147zm-80.35-62.61a37.714 37.714 0 0 1-6.446 21.108c-6.835 10.183-18.462 16.917-31.577 16.917s-24.742-6.734-31.578-16.917a37.714 37.714 0 0 1-6.447-21.107V0h-25.25v76.122c0 23.327 12.792 43.805 31.697 54.775a62.73 62.73 0 0 0 31.578 8.5 62.73 62.73 0 0 0 31.577-8.5c18.906-10.97 31.688-31.448 31.688-54.775V0H321.33v76.788z" fill="#575757"/><path d="M63.63 317.89c8.3-4.245 25.774-15.268 25.774-15.268l-19.051-6.94a17.423 17.423 0 0 0-5.008-1.007c-4.872-.245-14.124.3-16.085 7.348-2.694 9.663 6.07 20.14 14.37 15.867zm12.112 35.68c-2.314 1.85-3.158 4.627-1.878 6.233 1.278 1.578 4.19 1.36 6.476-.49 2.314-1.851 3.158-4.654 1.879-6.232-1.279-1.607-4.19-1.388-6.477.49zm-18.998-65.29c.6-1.933-1.197-4.218-4.028-5.116-2.83-.872-5.605-.028-6.204 1.93-.626 1.934 1.17 4.22 4 5.119 2.831.87 5.607.027 6.232-1.934zm51.465-26.455c0-1.74-.272-3.428-.76-5.062-1.472-4.68-5.118-13.199-12.412-12.627-10.015.789-16.846 12.627-10.015 18.943 6.859 6.341 23.187 18.995 23.187 18.995v-20.249zM58.868 269.8c-2.64 6.832 4.518 12.764 8.574 15.486 1.414.953 2.993 1.66 4.625 2.15L91.5 293.18s-7.484-19.243-11.621-27.598c-4.136-8.355-17.417-5.144-21.01 4.218zm34.372 95.364h.001c8.3 5.633 21.038.708 19.65-8.519-1.361-9.226-6.206-29.311-6.206-29.311L94.03 343.147a16.75 16.75 0 0 0-2.586 4.408c-1.769 4.546-4.271 13.5 1.796 17.609zm108.508-55.908c12.01 0 20.508-4.591 27.245-12.306v-28.81h-29.298v11.524h17.482v12.112c-5.371 4.295-10.06 5.468-15.43 5.468-16.992 0-23.537-11.622-23.537-22.853 0-14.063 8.887-25.196 23.538-25.196 5.956 0 12.792 2.441 17.382 6.835l8.008-8.201a36.106 36.106 0 0 0-25.39-10.452c-24.123 0-36.135 17.774-36.135 37.014 0 17.969 10.45 34.865 36.135 34.865zm108.489-.294c7.325 0 15.626-2.539 20.704-7.812l-7.617-7.52c-2.735 2.833-8.497 4.493-12.891 4.493-8.398 0-13.575-4.297-14.357-10.255h37.6c1.855-19.825-8.205-29.787-24.318-29.787-15.626 0-25.587 10.547-25.587 25.197 0 15.429 9.864 25.684 26.466 25.684zm-.488-40.333c6.836 0 11.719 3.126 12.5 9.377H296.27c1.759-6.25 7.032-9.377 13.478-9.377zM63.984 323.442c-9.28.98-10.858 14.561-3.32 21.174 5.497 4.818 13.554.191 17.5-2.694a16.192 16.192 0 0 0 3.619-3.592l12.111-16.22s-20.629.352-29.91 1.332zm49.522-33.992h-.044c-9.009 0-16.329 7.293-16.329 16.33 0 9.008 7.321 16.329 16.33 16.329 9.036 0 16.329-7.322 16.329-16.33.012-9.007-7.28-16.317-16.286-16.329zm4.556 68.61c-.136 6.179 5.634 9.744 11.73 9.472v-30.373l-9.2-8.954s-2.312 20.52-2.53 29.855zm292.271 9.523c-6.152-.39-8.984-2.15-8.984-5.274 0-3.027 3.124-4.787 8.788-4.787 4.592 0 8.497 1.075 11.915 4.299l6.64-7.814c-5.565-4.882-11.23-6.347-18.75-6.347-8.788 0-20.312 3.905-20.312 15.04 0 10.937 10.84 14.256 19.922 14.94 6.836.391 9.57 1.76 9.57 5.078 0 3.518-4.199 5.86-8.69 5.762-5.372-.097-13.185-2.928-16.603-6.737l-5.859 8.495c7.032 7.326 14.647 8.596 22.265 8.596 13.772 0 20.704-7.325 20.704-15.822 0-12.793-11.522-14.844-20.606-15.43zm17.675-109.013c-15.333 0-24.904 11.329-24.904 25.1 0 13.867 9.377 25.098 25.002 25.098 15.624 0 25.098-11.231 25.098-25.098 0-13.772-9.865-25.1-25.196-25.1zm.098 39.26c-8.693 0-13.087-6.836-13.087-14.16 0-7.228 4.492-14.26 13.087-14.26 8.007 0 13.086 7.032 13.086 14.26 0 7.324-4.396 14.16-13.086 14.16zm-35.448 9.863v-25.295c0-15.136-9.082-23.632-20.413-23.632-6.053 0-10.935 2.44-15.82 7.226l-.78-6.543H345v48.244h11.816v-24.61c0-7.326 4.98-13.478 12.305-13.478 7.618 0 11.622 5.566 11.622 12.891v25.197h11.915zm98.921-49.318c-5.079 0-12.99 2.734-15.823 7.716V239.43h-11.914v68.264h11.135l.78-6.641c3.712 5.762 9.67 7.716 15.528 7.716 14.161 0 24.806-9.376 24.806-25.196 0-16.603-10.449-25.197-24.512-25.197zm-1.075 39.358v-.002c-7.52 0-13.965-5.469-13.965-14.16 0-8.399 6.445-14.063 13.965-14.063 7.618 0 13.673 5.37 13.673 14.064 0 8.399-6.056 14.16-13.673 14.16zM354.67 347.562c-15.626 0-25.587 10.547-25.587 25.196 0 15.43 9.864 25.685 26.466 25.685 7.326 0 15.625-2.54 20.704-7.813l-7.617-7.52c-2.735 2.832-8.497 4.492-12.891 4.492-8.4 0-13.575-4.297-14.357-10.254h37.6c1.855-19.826-8.204-29.786-24.318-29.786zm-13.086 19.923c1.758-6.25 7.031-9.376 13.477-9.376 6.836 0 11.72 3.125 12.5 9.376h-25.977zm-224.421-124.6v-.001c0-2.939-1.66-5.361-3.7-5.361-2.014 0-3.675 2.422-3.675 5.361 0 2.967 1.66 5.361 3.673 5.361 2.042 0 3.702-2.395 3.702-5.36zm410.154 64.808h11.817v-68.264h-11.817v68.264zm48.145-49.612h.002c-15.627 0-25.588 10.547-25.588 25.197 0 15.429 9.863 25.684 26.464 25.684 7.326 0 15.627-2.539 20.706-7.812l-7.619-7.52c-2.733 2.833-8.495 4.493-12.89 4.493-8.399 0-13.574-4.297-14.357-10.255h37.6c1.854-19.825-8.205-29.787-24.318-29.787zm-13.086 19.923c1.757-6.249 7.032-9.376 13.478-9.376 6.834 0 11.719 3.127 12.5 9.376h-25.978zM0 397.606h129.791V375.48c-7.81-.844-14.205-4.383-14.205-4.383-20.549 10.807-33.314-3.536-33.314-3.536-8.572-1.96-16.736 8.546-16.736 8.546l-6.07-6.342c6.07-4.191 6.586-14.751 6.586-14.751-20.52-2.096-18.425-33.966-18.425-33.966-6.313-5.007-8.954-18.696-4.736-22.915 4.22-4.219-11.076-13.417-11.076-13.417l1.334-7.729c8.953 1.74 18.153-1.77 18.153-1.77C50.73 252.573 73.7 253.09 73.7 253.09c5.797-15.269 20.548-16.576 27.49-15.269 6.966 1.306 7.02-15.023 7.02-15.023h8.68c1.063 7.647 7.65 16.084 7.65 16.084 1.277-.68 3.156-1.197 5.253-1.551v-38.837H0v199.111zm191.98-68.794l-30.664 68.361h13.966l5.858-12.891h35.744l5.762 12.891h14.063l-30.665-68.361H191.98zm-5.663 43.458l12.697-29.102 12.695 29.102h-25.392zm-68.772-115.532a17.897 17.897 0 0 0-.654 5.088l.546 20.248s6.123-5.008 12.355-10.368v-27.869c-.055-.027-.136-.027-.19-.027-7.295-.38-10.751 8.246-12.057 12.928zm177.752 91.214c-5.468 0-11.914 2.344-15.625 7.716l-.781-6.64h-11.132v68.263h11.913v-25.782c3.418 5.274 10.938 6.836 16.017 6.836 15.43 0 24.316-11.132 24.316-25.196 0-14.161-9.864-25.197-24.708-25.197zm-.88 38.87c-8.104 0-13.67-6.152-13.67-13.673 0-7.52 5.077-13.673 13.67-13.673 8.595 0 13.673 6.153 13.673 13.673 0 7.52-5.565 13.672-13.672 13.672zM278.99 262.868v-.002c-2.637-2.636-7.422-4.59-12.402-4.59-4.884 0-9.865.88-13.576 6.837l-.879-5.566h-11.035v48.145h11.914v-25.39c0-8.888 5.762-12.207 12.013-12.207 3.905 0 6.152 1.074 8.594 3.125l5.371-10.352zm-35.938 134.304h11.817V328.91h-11.817v68.264zM540.804 25.361c5.038.13 14.29.37 17.502 6.483 1.184 2.253 1.247 4.732.898 6.903-.406 2.523-1.453 4.9-2.93 6.986a337.908 337.908 0 0 1-63.984 68.064v25.6h101.197v-26.862h-56.662c5.874-6.871 12.816-14.507 17.998-20.208 26.095-28.704 35.226-39.651 35.226-49.78 0-7.485-1.648-18.342-9.501-27.557C574.72 8.152 563.38 0 542.456 0c-19.17 0-34.138 7.616-41.248 11.566a92.632 92.632 0 0 0-9.787 6.272l10.536 24.709c6.6-6.194 20.879-17.651 38.847-17.186z" fill="#e62b2c"/></svg>